<svg xmlns="http://www.w3.org/2000/svg" width="720" height="366" viewBox="0 0 720 366" font-family="'Noto Sans CJK JP','Noto Sans JP','Hiragino Sans','Hiragino Kaku Gothic ProN','Yu Gothic',sans-serif"><defs><marker id="m26323d" viewBox="0 0 10 10" refX="8.5" refY="5" markerWidth="7" markerHeight="7" orient="auto-start-reverse"><path d="M0,0 L10,5 L0,10 z" fill="#26323d"/></marker><marker id="ma3b3bf" viewBox="0 0 10 10" refX="8.5" refY="5" markerWidth="7" markerHeight="7" orient="auto-start-reverse"><path d="M0,0 L10,5 L0,10 z" fill="#a3b3bf"/></marker><marker id="m3ea8ff" viewBox="0 0 10 10" refX="8.5" refY="5" markerWidth="7" markerHeight="7" orient="auto-start-reverse"><path d="M0,0 L10,5 L0,10 z" fill="#3ea8ff"/></marker><marker id="mf0506e" viewBox="0 0 10 10" refX="8.5" refY="5" markerWidth="7" markerHeight="7" orient="auto-start-reverse"><path d="M0,0 L10,5 L0,10 z" fill="#f0506e"/></marker><marker id="m65717b" viewBox="0 0 10 10" refX="8.5" refY="5" markerWidth="7" markerHeight="7" orient="auto-start-reverse"><path d="M0,0 L10,5 L0,10 z" fill="#65717b"/></marker></defs><rect width="720" height="366" fill="#ffffff"/><rect x="210" y="30" width="380" height="52" rx="10" fill="#0f83fd"/><circle cx="240" cy="56.0" r="15" fill="#ffffff" opacity="0.18"/><text x="240" y="56.0" font-size="15" font-weight="700" fill="#ffffff" text-anchor="middle" dominant-baseline="central">1</text><text x="270" y="56.0" font-size="17" font-weight="700" fill="#ffffff" text-anchor="start" dominant-baseline="central">資料そのものを直す</text><rect x="210" y="92" width="380" height="52" rx="10" fill="#3ea8ff"/><circle cx="240" cy="118.0" r="15" fill="#ffffff" opacity="0.18"/><text x="240" y="118.0" font-size="15" font-weight="700" fill="#ffffff" text-anchor="middle" dominant-baseline="central">2</text><text x="270" y="118.0" font-size="17" font-weight="700" fill="#ffffff" text-anchor="start" dominant-baseline="central">機械で止める</text><rect x="210" y="154" width="380" height="52" rx="10" fill="#7cc4ff"/><circle cx="240" cy="180.0" r="15" fill="#26323d" opacity="0.18"/><text x="240" y="180.0" font-size="15" font-weight="700" fill="#26323d" text-anchor="middle" dominant-baseline="central">3</text><text x="270" y="180.0" font-size="17" font-weight="700" fill="#26323d" text-anchor="start" dominant-baseline="central">いつも読む指示</text><rect x="210" y="216" width="380" height="52" rx="10" fill="#b5dcff"/><circle cx="240" cy="242.0" r="15" fill="#26323d" opacity="0.18"/><text x="240" y="242.0" font-size="15" font-weight="700" fill="#26323d" text-anchor="middle" dominant-baseline="central">4</text><text x="270" y="242.0" font-size="17" font-weight="700" fill="#26323d" text-anchor="start" dominant-baseline="central">手順書スキル</text><rect x="210" y="278" width="380" height="52" rx="10" fill="#e0f1ff"/><circle cx="240" cy="304.0" r="15" fill="#26323d" opacity="0.18"/><text x="240" y="304.0" font-size="15" font-weight="700" fill="#26323d" text-anchor="middle" dominant-baseline="central">5</text><text x="270" y="304.0" font-size="17" font-weight="700" fill="#26323d" text-anchor="start" dominant-baseline="central">人の目でチェック</text><path d="M160,320 L160,42" fill="none" stroke="#26323d" stroke-width="2.4" marker-end="url(#m26323d)" stroke-linecap="round" stroke-linejoin="round"/><text x="132" y="180.0" font-size="15" font-weight="700" fill="#26323d" text-anchor="middle" dominant-baseline="central">昇格</text><text x="625" y="56.0" font-size="13" font-weight="700" fill="#3ea8ff" text-anchor="start" dominant-baseline="central">強い</text><text x="625" y="304.0" font-size="13" font-weight="700" fill="#65717b" text-anchor="start" dominant-baseline="central">弱い</text><text x="400.0" y="352" font-size="13" font-weight="400" fill="#65717b" text-anchor="middle" dominant-baseline="central">見つけた誤りは、できるだけ上の段で直す</text></svg>
