<svg xmlns="http://www.w3.org/2000/svg" width="720" height="240" viewBox="0 0 720 240" font-family="'Noto Sans CJK JP','Noto Sans JP','Hiragino Sans','Hiragino Kaku Gothic ProN','Yu Gothic',sans-serif"><defs><marker id="m1c2621" viewBox="0 0 10 10" refX="8.5" refY="5" markerWidth="7" markerHeight="7" orient="auto-start-reverse"><path d="M0,0 L10,5 L0,10 z" fill="#1c2621"/></marker><marker id="m8a9a92" viewBox="0 0 10 10" refX="8.5" refY="5" markerWidth="7" markerHeight="7" orient="auto-start-reverse"><path d="M0,0 L10,5 L0,10 z" fill="#8a9a92"/></marker><marker id="m2e7a55" viewBox="0 0 10 10" refX="8.5" refY="5" markerWidth="7" markerHeight="7" orient="auto-start-reverse"><path d="M0,0 L10,5 L0,10 z" fill="#2e7a55"/></marker><marker id="mc94a41" viewBox="0 0 10 10" refX="8.5" refY="5" markerWidth="7" markerHeight="7" orient="auto-start-reverse"><path d="M0,0 L10,5 L0,10 z" fill="#c94a41"/></marker><marker id="m5d6b64" viewBox="0 0 10 10" refX="8.5" refY="5" markerWidth="7" markerHeight="7" orient="auto-start-reverse"><path d="M0,0 L10,5 L0,10 z" fill="#5d6b64"/></marker><marker id="mb7861a" viewBox="0 0 10 10" refX="8.5" refY="5" markerWidth="7" markerHeight="7" orient="auto-start-reverse"><path d="M0,0 L10,5 L0,10 z" fill="#b7861a"/></marker></defs><rect width="720" height="240" fill="#ffffff"/><rect x="23.0" y="38.0" width="146" height="64" rx="12" fill="#f3f6f4" stroke="#d5ddd8" stroke-width="1.5"/><text x="96.0" y="70" font-size="16" font-weight="700" fill="#1c2621" text-anchor="middle" dominant-baseline="central">下書き</text><rect x="199.0" y="38.0" width="146" height="64" rx="12" fill="#e3f1ea" stroke="#2e7a55" stroke-width="1.5"/><text x="272.0" y="70" font-size="16" font-weight="700" fill="#1c2621" text-anchor="middle" dominant-baseline="central">レビュー役のAI</text><path d="M173.0,70 L193.0,70" fill="none" stroke="#8a9a92" stroke-width="1.8" marker-end="url(#m8a9a92)" stroke-linecap="round" stroke-linejoin="round"/><rect x="375.0" y="38.0" width="146" height="64" rx="12" fill="#f3f6f4" stroke="#d5ddd8" stroke-width="1.5"/><text x="448.0" y="70" font-size="16" font-weight="700" fill="#1c2621" text-anchor="middle" dominant-baseline="central">指摘だけ</text><path d="M349.0,70 L369.0,70" fill="none" stroke="#8a9a92" stroke-width="1.8" marker-end="url(#m8a9a92)" stroke-linecap="round" stroke-linejoin="round"/><rect x="551.0" y="38.0" width="146" height="64" rx="12" fill="#1c2621" stroke="#1c2621" stroke-width="1.5"/><text x="624.0" y="70" font-size="16" font-weight="700" fill="#ffffff" text-anchor="middle" dominant-baseline="central">人が判断</text><path d="M525.0,70 L545.0,70" fill="none" stroke="#8a9a92" stroke-width="1.8" marker-end="url(#m8a9a92)" stroke-linecap="round" stroke-linejoin="round"/><rect x="323.0" y="158.0" width="250" height="56" rx="12" fill="#fdf3d6" stroke="#d9a521" stroke-width="1.5"/><text x="448.0" y="186" font-size="16" font-weight="700" fill="#1c2621" text-anchor="middle" dominant-baseline="central">lintやテンプレへ昇格</text><path d="M624.0,103 C624.0,170 604.0,186 579.0,186" fill="none" stroke="#b7861a" stroke-width="1.8" stroke-dasharray="6 5" marker-end="url(#mb7861a)" stroke-linecap="round" stroke-linejoin="round"/><rect x="549.75" y="131" width="128.5" height="22" rx="11" fill="#ffffff"/><text x="614.0" y="142" font-size="12.5" font-weight="500" fill="#8a6510" text-anchor="middle" dominant-baseline="central">同じ指摘が続いたら</text></svg>
