<svg xmlns="http://www.w3.org/2000/svg" width="720" height="240" viewBox="0 0 720 240" font-family="'Noto Sans CJK JP','Noto Sans JP','Hiragino Sans','Hiragino Kaku Gothic ProN','Yu Gothic',sans-serif"><defs><marker id="m26323d" viewBox="0 0 10 10" refX="8.5" refY="5" markerWidth="7" markerHeight="7" orient="auto-start-reverse"><path d="M0,0 L10,5 L0,10 z" fill="#26323d"/></marker><marker id="ma3b3bf" viewBox="0 0 10 10" refX="8.5" refY="5" markerWidth="7" markerHeight="7" orient="auto-start-reverse"><path d="M0,0 L10,5 L0,10 z" fill="#a3b3bf"/></marker><marker id="m3ea8ff" viewBox="0 0 10 10" refX="8.5" refY="5" markerWidth="7" markerHeight="7" orient="auto-start-reverse"><path d="M0,0 L10,5 L0,10 z" fill="#3ea8ff"/></marker><marker id="mf0506e" viewBox="0 0 10 10" refX="8.5" refY="5" markerWidth="7" markerHeight="7" orient="auto-start-reverse"><path d="M0,0 L10,5 L0,10 z" fill="#f0506e"/></marker><marker id="m65717b" viewBox="0 0 10 10" refX="8.5" refY="5" markerWidth="7" markerHeight="7" orient="auto-start-reverse"><path d="M0,0 L10,5 L0,10 z" fill="#65717b"/></marker><marker id="md98a00" viewBox="0 0 10 10" refX="8.5" refY="5" markerWidth="7" markerHeight="7" orient="auto-start-reverse"><path d="M0,0 L10,5 L0,10 z" fill="#d98a00"/></marker></defs><rect width="720" height="240" fill="#ffffff"/><rect x="23.0" y="38.0" width="146" height="64" rx="12" fill="#f5f9fc" stroke="#d6e3ed" stroke-width="1.5"/><text x="96.0" y="70" font-size="16" font-weight="700" fill="#26323d" text-anchor="middle" dominant-baseline="central">下書き</text><rect x="199.0" y="38.0" width="146" height="64" rx="12" fill="#e6f4ff" stroke="#3ea8ff" stroke-width="1.5"/><text x="272.0" y="70" font-size="16" font-weight="700" fill="#26323d" text-anchor="middle" dominant-baseline="central">レビュー役のAI</text><path d="M173.0,70 L193.0,70" fill="none" stroke="#a3b3bf" stroke-width="1.8" marker-end="url(#ma3b3bf)" stroke-linecap="round" stroke-linejoin="round"/><rect x="375.0" y="38.0" width="146" height="64" rx="12" fill="#f5f9fc" stroke="#d6e3ed" stroke-width="1.5"/><text x="448.0" y="70" font-size="16" font-weight="700" fill="#26323d" text-anchor="middle" dominant-baseline="central">指摘だけ</text><path d="M349.0,70 L369.0,70" fill="none" stroke="#a3b3bf" stroke-width="1.8" marker-end="url(#ma3b3bf)" stroke-linecap="round" stroke-linejoin="round"/><rect x="551.0" y="38.0" width="146" height="64" rx="12" fill="#3ea8ff" stroke="#3ea8ff" stroke-width="1.5"/><text x="624.0" y="70" font-size="16" font-weight="700" fill="#ffffff" text-anchor="middle" dominant-baseline="central">人が判断</text><path d="M525.0,70 L545.0,70" fill="none" stroke="#a3b3bf" stroke-width="1.8" marker-end="url(#ma3b3bf)" stroke-linecap="round" stroke-linejoin="round"/><rect x="323.0" y="158.0" width="250" height="56" rx="12" fill="#fff6e4" stroke="#f5a000" stroke-width="1.5"/><text x="448.0" y="186" font-size="16" font-weight="700" fill="#26323d" text-anchor="middle" dominant-baseline="central">lintやテンプレへ昇格</text><path d="M624.0,103 C624.0,170 604.0,186 579.0,186" fill="none" stroke="#d98a00" stroke-width="1.8" stroke-dasharray="6 5" marker-end="url(#md98a00)" stroke-linecap="round" stroke-linejoin="round"/><rect x="549.75" y="131" width="128.5" height="22" rx="11" fill="#ffffff"/><text x="614.0" y="142" font-size="12.5" font-weight="500" fill="#a86200" text-anchor="middle" dominant-baseline="central">同じ指摘が続いたら</text></svg>
