<svg xmlns="http://www.w3.org/2000/svg" width="720" height="130" viewBox="0 0 720 130" font-family="'Noto Sans CJK JP','Noto Sans JP','Hiragino Sans','Hiragino Kaku Gothic ProN','Yu Gothic',sans-serif"><defs><marker id="m26323d" viewBox="0 0 10 10" refX="8.5" refY="5" markerWidth="7" markerHeight="7" orient="auto-start-reverse"><path d="M0,0 L10,5 L0,10 z" fill="#26323d"/></marker><marker id="ma3b3bf" viewBox="0 0 10 10" refX="8.5" refY="5" markerWidth="7" markerHeight="7" orient="auto-start-reverse"><path d="M0,0 L10,5 L0,10 z" fill="#a3b3bf"/></marker><marker id="m3ea8ff" viewBox="0 0 10 10" refX="8.5" refY="5" markerWidth="7" markerHeight="7" orient="auto-start-reverse"><path d="M0,0 L10,5 L0,10 z" fill="#3ea8ff"/></marker><marker id="mf0506e" viewBox="0 0 10 10" refX="8.5" refY="5" markerWidth="7" markerHeight="7" orient="auto-start-reverse"><path d="M0,0 L10,5 L0,10 z" fill="#f0506e"/></marker><marker id="m65717b" viewBox="0 0 10 10" refX="8.5" refY="5" markerWidth="7" markerHeight="7" orient="auto-start-reverse"><path d="M0,0 L10,5 L0,10 z" fill="#65717b"/></marker><marker id="md98a00" viewBox="0 0 10 10" refX="8.5" refY="5" markerWidth="7" markerHeight="7" orient="auto-start-reverse"><path d="M0,0 L10,5 L0,10 z" fill="#d98a00"/></marker><marker id="mf5a000" viewBox="0 0 10 10" refX="8.5" refY="5" markerWidth="7" markerHeight="7" orient="auto-start-reverse"><path d="M0,0 L10,5 L0,10 z" fill="#f5a000"/></marker></defs><rect width="720" height="130" fill="#ffffff"/><rect x="25.0" y="33.0" width="190" height="64" rx="12" fill="#f5f9fc" stroke="#d6e3ed" stroke-width="1.5"/><text x="120.0" y="65" font-size="16" font-weight="700" fill="#26323d" text-anchor="middle" dominant-baseline="central">連絡が来る</text><rect x="265.0" y="33.0" width="190" height="64" rx="12" fill="#3ea8ff" stroke="#3ea8ff" stroke-width="1.5"/><text x="360.0" y="65" font-size="16" font-weight="700" fill="#ffffff" text-anchor="middle" dominant-baseline="central">AIが動く</text><path d="M219.0,65 L259.0,65" fill="none" stroke="#a3b3bf" stroke-width="1.8" marker-end="url(#ma3b3bf)" stroke-linecap="round" stroke-linejoin="round"/><rect x="505.0" y="33.0" width="190" height="64" rx="12" fill="#e6f4ff" stroke="#3ea8ff" stroke-width="1.5"/><text x="600.0" y="65" font-size="16" font-weight="700" fill="#26323d" text-anchor="middle" dominant-baseline="central">下書きが届く</text><path d="M459.0,65 L499.0,65" fill="none" stroke="#a3b3bf" stroke-width="1.8" marker-end="url(#ma3b3bf)" stroke-linecap="round" stroke-linejoin="round"/></svg>
